<svg xmlns="http://www.w3.org/2000/svg" viewBox="0 0 81.43 54"><defs><style>.cls-1{fill:#808184;}.cls-2{fill:#414042;}</style></defs><title>Asset 16</title><g id="Layer_2" data-name="Layer 2"><g id="Layer_1-2" data-name="Layer 1"><path class="cls-1" d="M20.65,23.5H22.8l1.43,5.75h0l1.87-5.75H28l1.86,5.9h0l1.51-5.9h2l-2.62,9H29l-2-6.21h0l-2,6.21h-1.7Z"/><path class="cls-1" d="M34.08,23.5h2.15l1.43,5.75h0l1.87-5.75H41.4l1.86,5.9h0l1.51-5.9h2l-2.62,9H42.41l-2-6.21h0l-2,6.21h-1.7Z"/><path class="cls-1" d="M47.5,23.5h2.15l1.43,5.75h0L53,23.5h1.84l1.86,5.9h0l1.51-5.9h2l-2.62,9H55.84l-2-6.21h0l-2,6.21h-1.7Z"/><circle class="cls-2" cx="40.72" cy="5.41" r="1.08"/><circle class="cls-2" cx="75.15" cy="49.02" r="1.08"/><circle class="cls-2" cx="70.82" cy="49.02" r="1.08"/><circle class="cls-2" cx="66.49" cy="49.02" r="1.08"/><path class="cls-2" d="M10.4,9.76H71v35h2.6v-40A4.77,4.77,0,0,0,68.87,0H12.56A4.77,4.77,0,0,0,7.8,4.76V44.47h2.6ZM12.56,2.6H68.87A2.17,2.17,0,0,1,71,4.76V8H10.4V4.76A2.17,2.17,0,0,1,12.56,2.6Z"/><path class="cls-2" d="M0,44.47v4.76A4.77,4.77,0,0,0,4.76,54h71.9a4.77,4.77,0,0,0,4.76-4.76V44.47Zm34.65,2.6H46.78v.87H34.65Zm44.18,2.17a2.17,2.17,0,0,1-2.17,2.17H4.76A2.17,2.17,0,0,1,2.6,49.24V47.07H32.92v2.6H48.51v-2.6H78.83Z"/></g></g></svg>